<svg id="visual" viewBox="0 0 960 540" width="960" height="540" xmlns="http://www.w3.org/2000/svg" xmlns:xlink="http://www.w3.org/1999/xlink" version="1.1"><path d="M0 50L12.3 44.5C24.7 39 49.3 28 74 23.5C98.7 19 123.3 21 148 24.7C172.7 28.3 197.3 33.7 221.8 38.2C246.3 42.7 270.7 46.3 295.2 51.7C319.7 57 344.3 64 369 60.3C393.7 56.7 418.3 42.3 443 36C467.7 29.7 492.3 31.3 517 35C541.7 38.7 566.3 44.3 591 43.5C615.7 42.7 640.3 35.3 664.8 37C689.3 38.7 713.7 49.3 738.2 59.2C762.7 69 787.3 78 812 81.7C836.7 85.3 861.3 83.7 886 80.2C910.7 76.7 935.3 71.3 947.7 68.7L960 66L960 0L947.7 0C935.3 0 910.7 0 886 0C861.3 0 836.7 0 812 0C787.3 0 762.7 0 738.2 0C713.7 0 689.3 0 664.8 0C640.3 0 615.7 0 591 0C566.3 0 541.7 0 517 0C492.3 0 467.7 0 443 0C418.3 0 393.7 0 369 0C344.3 0 319.7 0 295.2 0C270.7 0 246.3 0 221.8 0C197.3 0 172.7 0 148 0C123.3 0 98.7 0 74 0C49.3 0 24.7 0 12.3 0L0 0Z" fill="#c100ee"></path><path d="M0 168L12.3 150C24.7 132 49.3 96 74 82.5C98.7 69 123.3 78 148 92.5C172.7 107 197.3 127 221.8 133.3C246.3 139.7 270.7 132.3 295.2 124.2C319.7 116 344.3 107 369 108C393.7 109 418.3 120 443 121C467.7 122 492.3 113 517 120.2C541.7 127.3 566.3 150.7 591 154.2C615.7 157.7 640.3 141.3 664.8 142.2C689.3 143 713.7 161 738.2 160.2C762.7 159.3 787.3 139.7 812 126.2C836.7 112.7 861.3 105.3 886 101.7C910.7 98 935.3 98 947.7 98L960 98L960 64L947.7 66.7C935.3 69.3 910.7 74.7 886 78.2C861.3 81.7 836.7 83.3 812 79.7C787.3 76 762.7 67 738.2 57.2C713.7 47.3 689.3 36.7 664.8 35C640.3 33.3 615.7 40.7 591 41.5C566.3 42.3 541.7 36.7 517 33C492.3 29.3 467.7 27.7 443 34C418.3 40.3 393.7 54.7 369 58.3C344.3 62 319.7 55 295.2 49.7C270.7 44.3 246.3 40.7 221.8 36.2C197.3 31.7 172.7 26.3 148 22.7C123.3 19 98.7 17 74 21.5C49.3 26 24.7 37 12.3 42.5L0 48Z" fill="#9f25dd"></path><path d="M0 244L12.3 231.3C24.7 218.7 49.3 193.3 74 183.5C98.7 173.7 123.3 179.3 148 197.3C172.7 215.3 197.3 245.7 221.8 262.7C246.3 279.7 270.7 283.3 295.2 270.8C319.7 258.3 344.3 229.7 369 236C393.7 242.3 418.3 283.7 443 292.7C467.7 301.7 492.3 278.3 517 273C541.7 267.7 566.3 280.3 591 292C615.7 303.7 640.3 314.3 664.8 304.3C689.3 294.3 713.7 263.7 738.2 247.5C762.7 231.3 787.3 229.7 812 219.8C836.7 210 861.3 192 886 185.7C910.7 179.3 935.3 184.7 947.7 187.3L960 190L960 96L947.7 96C935.3 96 910.7 96 886 99.7C861.3 103.3 836.7 110.7 812 124.2C787.3 137.7 762.7 157.3 738.2 158.2C713.7 159 689.3 141 664.8 140.2C640.3 139.3 615.7 155.7 591 152.2C566.3 148.7 541.7 125.3 517 118.2C492.3 111 467.7 120 443 119C418.3 118 393.7 107 369 106C344.3 105 319.7 114 295.2 122.2C270.7 130.3 246.3 137.7 221.8 131.3C197.3 125 172.7 105 148 90.5C123.3 76 98.7 67 74 80.5C49.3 94 24.7 130 12.3 148L0 166Z" fill="#7f2fc9"></path><path d="M0 260L12.3 247.5C24.7 235 49.3 210 74 199.2C98.7 188.3 123.3 191.7 148 213.2C172.7 234.7 197.3 274.3 221.8 296C246.3 317.7 270.7 321.3 295.2 312.3C319.7 303.3 344.3 281.7 369 283.5C393.7 285.3 418.3 310.7 443 318.8C467.7 327 492.3 318 517 317C541.7 316 566.3 323 591 333.8C615.7 344.7 640.3 359.3 664.8 348.7C689.3 338 713.7 302 738.2 279.5C762.7 257 787.3 248 812 241.7C836.7 235.3 861.3 231.7 886 227.2C910.7 222.7 935.3 217.3 947.7 214.7L960 212L960 188L947.7 185.3C935.3 182.7 910.7 177.3 886 183.7C861.3 190 836.7 208 812 217.8C787.3 227.7 762.7 229.3 738.2 245.5C713.7 261.7 689.3 292.3 664.8 302.3C640.3 312.3 615.7 301.7 591 290C566.3 278.3 541.7 265.7 517 271C492.3 276.3 467.7 299.7 443 290.7C418.3 281.7 393.7 240.3 369 234C344.3 227.7 319.7 256.3 295.2 268.8C270.7 281.3 246.3 277.7 221.8 260.7C197.3 243.7 172.7 213.3 148 195.3C123.3 177.3 98.7 171.7 74 181.5C49.3 191.3 24.7 216.7 12.3 229.3L0 242Z" fill="#6132b3"></path><path d="M0 406L12.3 397.8C24.7 389.7 49.3 373.3 74 377.8C98.7 382.3 123.3 407.7 148 416.7C172.7 425.7 197.3 418.3 221.8 413.8C246.3 409.3 270.7 407.7 295.2 419.5C319.7 431.3 344.3 456.7 369 454C393.7 451.3 418.3 420.7 443 405.3C467.7 390 492.3 390 517 395.3C541.7 400.7 566.3 411.3 591 415.8C615.7 420.3 640.3 418.7 664.8 414.2C689.3 409.7 713.7 402.3 738.2 400.5C762.7 398.7 787.3 402.3 812 405C836.7 407.7 861.3 409.3 886 404C910.7 398.7 935.3 386.3 947.7 380.2L960 374L960 210L947.7 212.7C935.3 215.3 910.7 220.7 886 225.2C861.3 229.7 836.7 233.3 812 239.7C787.3 246 762.7 255 738.2 277.5C713.7 300 689.3 336 664.8 346.7C640.3 357.3 615.7 342.7 591 331.8C566.3 321 541.7 314 517 315C492.3 316 467.7 325 443 316.8C418.3 308.7 393.7 283.3 369 281.5C344.3 279.7 319.7 301.3 295.2 310.3C270.7 319.3 246.3 315.7 221.8 294C197.3 272.3 172.7 232.7 148 211.2C123.3 189.7 98.7 186.3 74 197.2C49.3 208 24.7 233 12.3 245.5L0 258Z" fill="#47319c"></path><path d="M0 417L12.3 412.5C24.7 408 49.3 399 74 408C98.7 417 123.3 444 148 453.8C172.7 463.7 197.3 456.3 221.8 450.8C246.3 445.3 270.7 441.7 295.2 449.8C319.7 458 344.3 478 369 475.3C393.7 472.7 418.3 447.3 443 439.2C467.7 431 492.3 440 517 442.7C541.7 445.3 566.3 441.7 591 446.2C615.7 450.7 640.3 463.3 664.8 466.2C689.3 469 713.7 462 738.2 452.2C762.7 442.3 787.3 429.7 812 426.8C836.7 424 861.3 431 886 432.8C910.7 434.7 935.3 431.3 947.7 429.7L960 428L960 372L947.7 378.2C935.3 384.3 910.7 396.7 886 402C861.3 407.3 836.7 405.7 812 403C787.3 400.3 762.7 396.7 738.2 398.5C713.7 400.3 689.3 407.7 664.8 412.2C640.3 416.7 615.7 418.3 591 413.8C566.3 409.3 541.7 398.7 517 393.3C492.3 388 467.7 388 443 403.3C418.3 418.7 393.7 449.3 369 452C344.3 454.7 319.7 429.3 295.2 417.5C270.7 405.7 246.3 407.3 221.8 411.8C197.3 416.3 172.7 423.7 148 414.7C123.3 405.7 98.7 380.3 74 375.8C49.3 371.3 24.7 387.7 12.3 395.8L0 404Z" fill="#312d84"></path><path d="M0 519L12.3 511.8C24.7 504.7 49.3 490.3 74 492.2C98.7 494 123.3 512 148 519.2C172.7 526.3 197.3 522.7 221.8 518.2C246.3 513.7 270.7 508.3 295.2 507.5C319.7 506.7 344.3 510.3 369 513C393.7 515.7 418.3 517.3 443 516.5C467.7 515.7 492.3 512.3 517 506.2C541.7 500 566.3 491 591 491C615.7 491 640.3 500 664.8 502.7C689.3 505.3 713.7 501.7 738.2 498C762.7 494.3 787.3 490.7 812 492.5C836.7 494.3 861.3 501.7 886 503.5C910.7 505.3 935.3 501.7 947.7 499.8L960 498L960 426L947.7 427.7C935.3 429.3 910.7 432.7 886 430.8C861.3 429 836.7 422 812 424.8C787.3 427.7 762.7 440.3 738.2 450.2C713.7 460 689.3 467 664.8 464.2C640.3 461.3 615.7 448.7 591 444.2C566.3 439.7 541.7 443.3 517 440.7C492.3 438 467.7 429 443 437.2C418.3 445.3 393.7 470.7 369 473.3C344.3 476 319.7 456 295.2 447.8C270.7 439.7 246.3 443.3 221.8 448.8C197.3 454.3 172.7 461.7 148 451.8C123.3 442 98.7 415 74 406C49.3 397 24.7 406 12.3 410.5L0 415Z" fill="#20286b"></path><path d="M0 541L12.3 541C24.7 541 49.3 541 74 541C98.7 541 123.3 541 148 541C172.7 541 197.3 541 221.8 541C246.3 541 270.7 541 295.2 541C319.7 541 344.3 541 369 541C393.7 541 418.3 541 443 541C467.7 541 492.3 541 517 541C541.7 541 566.3 541 591 541C615.7 541 640.3 541 664.8 541C689.3 541 713.7 541 738.2 541C762.7 541 787.3 541 812 541C836.7 541 861.3 541 886 541C910.7 541 935.3 541 947.7 541L960 541L960 496L947.7 497.8C935.3 499.7 910.7 503.3 886 501.5C861.3 499.7 836.7 492.3 812 490.5C787.3 488.7 762.7 492.3 738.2 496C713.7 499.7 689.3 503.3 664.8 500.7C640.3 498 615.7 489 591 489C566.3 489 541.7 498 517 504.2C492.3 510.3 467.7 513.7 443 514.5C418.3 515.3 393.7 513.7 369 511C344.3 508.3 319.7 504.7 295.2 505.5C270.7 506.3 246.3 511.7 221.8 516.2C197.3 520.7 172.7 524.3 148 517.2C123.3 510 98.7 492 74 490.2C49.3 488.3 24.7 502.7 12.3 509.8L0 517Z" fill="#142152"></path></svg>