<svg id="visual" viewBox="0 0 960 540" width="960" height="540" xmlns="http://www.w3.org/2000/svg" xmlns:xlink="http://www.w3.org/1999/xlink" version="1.1"><path d="M0 93L12.3 90.3C24.7 87.7 49.3 82.3 74 71.5C98.7 60.7 123.3 44.3 148 56.8C172.7 69.3 197.3 110.7 221.8 126C246.3 141.3 270.7 130.7 295.2 121.7C319.7 112.7 344.3 105.3 369 100.8C393.7 96.3 418.3 94.7 443 83C467.7 71.3 492.3 49.7 517 39.7C541.7 29.7 566.3 31.3 591 47.5C615.7 63.7 640.3 94.3 664.8 100.7C689.3 107 713.7 89 738.2 84.5C762.7 80 787.3 89 812 91.7C836.7 94.3 861.3 90.7 886 78.2C910.7 65.7 935.3 44.3 947.7 33.7L960 23L960 0L947.7 0C935.3 0 910.7 0 886 0C861.3 0 836.7 0 812 0C787.3 0 762.7 0 738.2 0C713.7 0 689.3 0 664.8 0C640.3 0 615.7 0 591 0C566.3 0 541.7 0 517 0C492.3 0 467.7 0 443 0C418.3 0 393.7 0 369 0C344.3 0 319.7 0 295.2 0C270.7 0 246.3 0 221.8 0C197.3 0 172.7 0 148 0C123.3 0 98.7 0 74 0C49.3 0 24.7 0 12.3 0L0 0Z" fill="#c100ee"></path><path d="M0 158L12.3 170.5C24.7 183 49.3 208 74 203.5C98.7 199 123.3 165 148 161.5C172.7 158 197.3 185 221.8 195.7C246.3 206.3 270.7 200.7 295.2 189.8C319.7 179 344.3 163 369 171.2C393.7 179.3 418.3 211.7 443 218C467.7 224.3 492.3 204.7 517 204.7C541.7 204.7 566.3 224.3 591 223.3C615.7 222.3 640.3 200.7 664.8 193.5C689.3 186.3 713.7 193.7 738.2 205.3C762.7 217 787.3 233 812 220.3C836.7 207.7 861.3 166.3 886 156.5C910.7 146.7 935.3 168.3 947.7 179.2L960 190L960 21L947.7 31.7C935.3 42.3 910.7 63.7 886 76.2C861.3 88.7 836.7 92.3 812 89.7C787.3 87 762.7 78 738.2 82.5C713.7 87 689.3 105 664.8 98.7C640.3 92.3 615.7 61.7 591 45.5C566.3 29.3 541.7 27.7 517 37.7C492.3 47.7 467.7 69.3 443 81C418.3 92.7 393.7 94.3 369 98.8C344.3 103.3 319.7 110.7 295.2 119.7C270.7 128.7 246.3 139.3 221.8 124C197.3 108.7 172.7 67.3 148 54.8C123.3 42.3 98.7 58.7 74 69.5C49.3 80.3 24.7 85.7 12.3 88.3L0 91Z" fill="#9f25dd"></path><path d="M0 185L12.3 199.3C24.7 213.7 49.3 242.3 74 242.3C98.7 242.3 123.3 213.7 148 213.7C172.7 213.7 197.3 242.3 221.8 250.3C246.3 258.3 270.7 245.7 295.2 230.3C319.7 215 344.3 197 369 203.3C393.7 209.7 418.3 240.3 443 244C467.7 247.7 492.3 224.3 517 229.7C541.7 235 566.3 269 591 269C615.7 269 640.3 235 664.8 227C689.3 219 713.7 237 738.2 255.8C762.7 274.7 787.3 294.3 812 280.8C836.7 267.3 861.3 220.7 886 204.5C910.7 188.3 935.3 202.7 947.7 209.8L960 217L960 188L947.7 177.2C935.3 166.3 910.7 144.7 886 154.5C861.3 164.3 836.7 205.7 812 218.3C787.3 231 762.7 215 738.2 203.3C713.7 191.7 689.3 184.3 664.8 191.5C640.3 198.7 615.7 220.3 591 221.3C566.3 222.3 541.7 202.7 517 202.7C492.3 202.7 467.7 222.3 443 216C418.3 209.7 393.7 177.3 369 169.2C344.3 161 319.7 177 295.2 187.8C270.7 198.7 246.3 204.3 221.8 193.7C197.3 183 172.7 156 148 159.5C123.3 163 98.7 197 74 201.5C49.3 206 24.7 181 12.3 168.5L0 156Z" fill="#7f2fc9"></path><path d="M0 255L12.3 267.5C24.7 280 49.3 305 74 307.7C98.7 310.3 123.3 290.7 148 285.3C172.7 280 197.3 289 221.8 285.3C246.3 281.7 270.7 265.3 295.2 251.8C319.7 238.3 344.3 227.7 369 235C393.7 242.3 418.3 267.7 443 273C467.7 278.3 492.3 263.7 517 269.8C541.7 276 566.3 303 591 299.5C615.7 296 640.3 262 664.8 263C689.3 264 713.7 300 738.2 319.8C762.7 339.7 787.3 343.3 812 325.3C836.7 307.3 861.3 267.7 886 263.2C910.7 258.7 935.3 289.3 947.7 304.7L960 320L960 215L947.7 207.8C935.3 200.7 910.7 186.3 886 202.5C861.3 218.7 836.7 265.3 812 278.8C787.3 292.3 762.7 272.7 738.2 253.8C713.7 235 689.3 217 664.8 225C640.3 233 615.7 267 591 267C566.3 267 541.7 233 517 227.7C492.3 222.3 467.7 245.7 443 242C418.3 238.3 393.7 207.7 369 201.3C344.3 195 319.7 213 295.2 228.3C270.7 243.7 246.3 256.3 221.8 248.3C197.3 240.3 172.7 211.7 148 211.7C123.3 211.7 98.7 240.3 74 240.3C49.3 240.3 24.7 211.7 12.3 197.3L0 183Z" fill="#6132b3"></path><path d="M0 390L12.3 394.5C24.7 399 49.3 408 74 407C98.7 406 123.3 395 148 404C172.7 413 197.3 442 221.8 444.8C246.3 447.7 270.7 424.3 295.2 409.8C319.7 395.3 344.3 389.7 369 396.8C393.7 404 418.3 424 443 427.7C467.7 431.3 492.3 418.7 517 411.5C541.7 404.3 566.3 402.7 591 395.5C615.7 388.3 640.3 375.7 664.8 371.2C689.3 366.7 713.7 370.3 738.2 376.7C762.7 383 787.3 392 812 395.5C836.7 399 861.3 397 886 407.7C910.7 418.3 935.3 441.7 947.7 453.3L960 465L960 318L947.7 302.7C935.3 287.3 910.7 256.7 886 261.2C861.3 265.7 836.7 305.3 812 323.3C787.3 341.3 762.7 337.7 738.2 317.8C713.7 298 689.3 262 664.8 261C640.3 260 615.7 294 591 297.5C566.3 301 541.7 274 517 267.8C492.3 261.7 467.7 276.3 443 271C418.3 265.7 393.7 240.3 369 233C344.3 225.7 319.7 236.3 295.2 249.8C270.7 263.3 246.3 279.7 221.8 283.3C197.3 287 172.7 278 148 283.3C123.3 288.7 98.7 308.3 74 305.7C49.3 303 24.7 278 12.3 265.5L0 253Z" fill="#47319c"></path><path d="M0 428L12.3 437C24.7 446 49.3 464 74 465.7C98.7 467.3 123.3 452.7 148 454.3C172.7 456 197.3 474 221.8 479.5C246.3 485 270.7 478 295.2 466.3C319.7 454.7 344.3 438.3 369 438.3C393.7 438.3 418.3 454.7 443 463.7C467.7 472.7 492.3 474.3 517 473.3C541.7 472.3 566.3 468.7 591 458.8C615.7 449 640.3 433 664.8 426.8C689.3 420.7 713.7 424.3 738.2 429.7C762.7 435 787.3 442 812 449.2C836.7 456.3 861.3 463.7 886 472.7C910.7 481.7 935.3 492.3 947.7 497.7L960 503L960 463L947.7 451.3C935.3 439.7 910.7 416.3 886 405.7C861.3 395 836.7 397 812 393.5C787.3 390 762.7 381 738.2 374.7C713.7 368.3 689.3 364.7 664.8 369.2C640.3 373.7 615.7 386.3 591 393.5C566.3 400.7 541.7 402.3 517 409.5C492.3 416.7 467.7 429.3 443 425.7C418.3 422 393.7 402 369 394.8C344.3 387.7 319.7 393.3 295.2 407.8C270.7 422.3 246.3 445.7 221.8 442.8C197.3 440 172.7 411 148 402C123.3 393 98.7 404 74 405C49.3 406 24.7 397 12.3 392.5L0 388Z" fill="#312d84"></path><path d="M0 509L12.3 509.8C24.7 510.7 49.3 512.3 74 514C98.7 515.7 123.3 517.3 148 515.5C172.7 513.7 197.3 508.3 221.8 503C246.3 497.7 270.7 492.3 295.2 491.5C319.7 490.7 344.3 494.3 369 498.8C393.7 503.3 418.3 508.7 443 506.8C467.7 505 492.3 496 517 492.3C541.7 488.7 566.3 490.3 591 489.5C615.7 488.7 640.3 485.3 664.8 485.3C689.3 485.3 713.7 488.7 738.2 495.8C762.7 503 787.3 514 812 520.3C836.7 526.7 861.3 528.3 886 528.3C910.7 528.3 935.3 526.7 947.7 525.8L960 525L960 501L947.7 495.7C935.3 490.3 910.7 479.7 886 470.7C861.3 461.7 836.7 454.3 812 447.2C787.3 440 762.7 433 738.2 427.7C713.7 422.3 689.3 418.7 664.8 424.8C640.3 431 615.7 447 591 456.8C566.3 466.7 541.7 470.3 517 471.3C492.3 472.3 467.7 470.7 443 461.7C418.3 452.7 393.7 436.3 369 436.3C344.3 436.3 319.7 452.7 295.2 464.3C270.7 476 246.3 483 221.8 477.5C197.3 472 172.7 454 148 452.3C123.3 450.7 98.7 465.3 74 463.7C49.3 462 24.7 444 12.3 435L0 426Z" fill="#20286b"></path><path d="M0 541L12.3 541C24.7 541 49.3 541 74 541C98.7 541 123.3 541 148 541C172.7 541 197.3 541 221.8 541C246.3 541 270.7 541 295.2 541C319.7 541 344.3 541 369 541C393.7 541 418.3 541 443 541C467.7 541 492.3 541 517 541C541.7 541 566.3 541 591 541C615.7 541 640.3 541 664.8 541C689.3 541 713.7 541 738.2 541C762.7 541 787.3 541 812 541C836.7 541 861.3 541 886 541C910.7 541 935.3 541 947.7 541L960 541L960 523L947.7 523.8C935.3 524.7 910.7 526.3 886 526.3C861.3 526.3 836.7 524.7 812 518.3C787.3 512 762.7 501 738.2 493.8C713.7 486.7 689.3 483.3 664.8 483.3C640.3 483.3 615.7 486.7 591 487.5C566.3 488.3 541.7 486.7 517 490.3C492.3 494 467.7 503 443 504.8C418.3 506.7 393.7 501.3 369 496.8C344.3 492.3 319.7 488.7 295.2 489.5C270.7 490.3 246.3 495.7 221.8 501C197.3 506.3 172.7 511.7 148 513.5C123.3 515.3 98.7 513.7 74 512C49.3 510.3 24.7 508.7 12.3 507.8L0 507Z" fill="#142152"></path></svg>